<svg xmlns="http://www.w3.org/2000/svg" viewBox="0 0 376 375" width="376" height="375">
	<style>
		tspan { white-space:pre }
		.shp0 { fill: none;stroke: #6a6a6a;stroke-linecap:round;stroke-linejoin:round;stroke-width: 15 } 
		.shp1 { fill: none;stroke: #4a4a4a;stroke-linecap:round;stroke-linejoin:round;stroke-width: 15 } 
		.shp2 { fill: none;stroke: #0a0a0a;stroke-linecap:round;stroke-linejoin:round;stroke-width: 5 } 
	</style>
	<path class="shp0" d="" />
	<path class="shp1" d="" />
	<path fill-rule="evenodd" class="shp2" d="M367 7L367 367L7 367L7 7M67 307L307 307L307 67L67 67L67 307ZM7 7L7 7L367 7M67 127L67 127L307 127M67 187L67 187L307 187M67 247L67 247L307 247M187 67L187 67L187 127M187 187L187 187L187 247M127 247L127 247L127 307M127 187L127 187L127 127M247 127L247 127L247 187M247 247L247 247L247 307" />
</svg>