<?xml version="1.0" encoding="UTF-8" standalone="no"?>
<!-- Created with Inkscape (http://www.inkscape.org/) -->

<svg
   xmlns:dc="http://purl.org/dc/elements/1.1/"
   xmlns:cc="http://creativecommons.org/ns#"
   xmlns:rdf="http://www.w3.org/1999/02/22-rdf-syntax-ns#"
   xmlns:svg="http://www.w3.org/2000/svg"
   xmlns="http://www.w3.org/2000/svg"
   xmlns:sodipodi="http://sodipodi.sourceforge.net/DTD/sodipodi-0.dtd"
   xmlns:inkscape="http://www.inkscape.org/namespaces/inkscape"
   width="82.058517mm"
   height="82.058517mm"
   viewBox="0 0 82.058517 82.058517"
   version="1.1"
   id="svg328"
   sodipodi:docname="mera.svg"
   inkscape:version="0.92.3 (2405546, 2018-03-11)">
  <defs
     id="defs322" />
  <sodipodi:namedview
     id="base"
     pagecolor="#ffffff"
     bordercolor="#666666"
     borderopacity="1.0"
     inkscape:pageopacity="0.0"
     inkscape:pageshadow="2"
     inkscape:zoom="0.35"
     inkscape:cx="93.78507"
     inkscape:cy="225.21363"
     inkscape:document-units="mm"
     inkscape:current-layer="layer1"
     showgrid="false"
     inkscape:window-width="1366"
     inkscape:window-height="705"
     inkscape:window-x="0"
     inkscape:window-y="30"
     inkscape:window-maximized="1" />
  <metadata
     id="metadata325">
    <rdf:RDF>
      <cc:Work
         rdf:about="">
        <dc:format>image/svg+xml</dc:format>
        <dc:type
           rdf:resource="http://purl.org/dc/dcmitype/StillImage" />
        <dc:title></dc:title>
      </cc:Work>
    </rdf:RDF>
  </metadata>
  <g
     inkscape:label="Layer 1"
     inkscape:groupmode="layer"
     id="layer1"
     transform="translate(-15.667169,-183.39931)">
    <g
       style="fill:none"
       id="g803"
       transform="matrix(0.26458333,0,0,0.26458333,-78.241072,168.86607)">
      <path
         id="path786"
         d=""
         style="fill:none;stroke:#6a6a6a;stroke-width:15px;stroke-linecap:round;stroke-linejoin:round"
         inkscape:connector-curvature="0" />
      <path
         id="path788"
         d=""
         style="fill:none;stroke:#4a4a4a;stroke-width:15px;stroke-linecap:round;stroke-linejoin:round"
         inkscape:connector-curvature="0" />
      <path
         id="path790"
         d="m 360,60 v 0 h 300 m 0,300 v 0 -300 m 0,300 v 0 H 360 v 0 -300 m 30,30 a 240,240 0 0 1 240,240 v 0 A 240,240 0 0 1 390,90 m 120,90 a 30,30 0 0 0 -30,30 30,30 0 0 0 30,30 30,30 0 0 0 30,-30 v 0 a 30,30 0 0 0 -30,-30 m 0,15 a 15,15 0 0 0 -15,15 15,15 0 0 0 15,15 15,15 0 0 0 15,-15 m -15,-15 a 15,15 0 0 1 15,15 M 375,345 v 0 l 75,-75 M 645,75 v 0 l -75,75 m -60,15 a 45,45 0 0 0 -45,45 45,45 0 0 0 45,45 45,45 0 0 0 45,-45 45,45 0 0 0 -45,-45"
         style="fill:none;stroke:#0a0a0a;stroke-width:10px;stroke-linecap:round;stroke-linejoin:round"
         inkscape:connector-curvature="0" />
    </g>
  </g>
</svg>
