<?xml version="1.0" encoding="UTF-8" standalone="no"?>
<!-- Created with Inkscape (http://www.inkscape.org/) -->

<svg
   xmlns:dc="http://purl.org/dc/elements/1.1/"
   xmlns:cc="http://creativecommons.org/ns#"
   xmlns:rdf="http://www.w3.org/1999/02/22-rdf-syntax-ns#"
   xmlns:svg="http://www.w3.org/2000/svg"
   xmlns="http://www.w3.org/2000/svg"
   xmlns:sodipodi="http://sodipodi.sourceforge.net/DTD/sodipodi-0.dtd"
   xmlns:inkscape="http://www.inkscape.org/namespaces/inkscape"
   width="82.058517mm"
   height="82.058517mm"
   viewBox="0 0 82.058517 82.058517"
   version="1.1"
   id="svg328"
   sodipodi:docname="nag.svg"
   inkscape:version="0.92.3 (2405546, 2018-03-11)">
  <defs
     id="defs322" />
  <sodipodi:namedview
     id="base"
     pagecolor="#ffffff"
     bordercolor="#666666"
     borderopacity="1.0"
     inkscape:pageopacity="0.0"
     inkscape:pageshadow="2"
     inkscape:zoom="0.35"
     inkscape:cx="-298.14416"
     inkscape:cy="-132.42991"
     inkscape:document-units="mm"
     inkscape:current-layer="layer1"
     showgrid="false"
     inkscape:window-width="1366"
     inkscape:window-height="705"
     inkscape:window-x="0"
     inkscape:window-y="30"
     inkscape:window-maximized="1" />
  <metadata
     id="metadata325">
    <rdf:RDF>
      <cc:Work
         rdf:about="">
        <dc:format>image/svg+xml</dc:format>
        <dc:type
           rdf:resource="http://purl.org/dc/dcmitype/StillImage" />
        <dc:title></dc:title>
      </cc:Work>
    </rdf:RDF>
  </metadata>
  <g
     inkscape:label="Layer 1"
     inkscape:groupmode="layer"
     id="layer1"
     transform="translate(-58.756456,-194.7386)">
    <g
       style="fill:none"
       id="g1255"
       transform="matrix(0.26458333,0,0,0.26458333,-35.151785,180.20536)">
      <path
         id="path1238"
         d=""
         style="fill:none;stroke:#6a6a6a;stroke-width:15px;stroke-linecap:round;stroke-linejoin:round"
         inkscape:connector-curvature="0" />
      <path
         id="path1240"
         d=""
         style="fill:none;stroke:#4a4a4a;stroke-width:15px;stroke-linecap:round;stroke-linejoin:round"
         inkscape:connector-curvature="0" />
      <path
         id="path1242"
         d="m 360,60 v 0 h 300 m 0,300 v 0 -300 m 0,300 v 0 H 360 v 0 -300 m 150,60 a 90,90 0 0 0 -90,90 90,90 0 0 0 90,90 90,90 0 0 0 90,-90 90,90 0 0 0 -90,-90 m -90,90 v 0 h 180 m -90,-90 v 0 180 M 465,135 v 0 150 m 90,-150 v 0 150 M 510,105 A 105,105 0 0 0 405,210 105,105 0 0 0 510,315 105,105 0 0 0 615,210 105,105 0 0 0 510,105"
         style="fill:none;stroke:#0a0a0a;stroke-width:10px;stroke-linecap:round;stroke-linejoin:round"
         inkscape:connector-curvature="0" />
    </g>
  </g>
</svg>
